<?xml version="1.0" standalone="no"?>
<!DOCTYPE svg PUBLIC "-//W3C//DTD SVG 20010904//EN"
 "http://www.w3.org/TR/2001/REC-SVG-20010904/DTD/svg10.dtd">
<svg version="1.0" xmlns="http://www.w3.org/2000/svg"
 width="320.000000pt" height="320.000000pt" viewBox="0 0 320.000000 320.000000"
 preserveAspectRatio="xMidYMid meet">

<g transform="translate(0.000000,320.000000) scale(0.100000,-0.100000)"
fill="#000000" stroke="none">
<path d="M0 1600 l0 -1600 1600 0 1600 0 0 1600 0 1600 -1600 0 -1600 0 0
-1600z m2835 914 c37 -14 45 -57 45 -229 l0 -167 -29 -29 -29 -29 -1222 0
-1222 0 -29 29 -29 29 0 167 c0 168 9 215 42 228 19 8 2453 8 2473 1z m-2215
-590 l0 -64 -45 0 c-43 0 -45 1 -45 30 0 29 -2 30 -45 30 -41 0 -45 -2 -45
-24 0 -20 17 -34 88 -78 l87 -53 3 -72 c4 -99 -5 -104 -159 -101 l-114 3 0 65
0 65 45 0 c41 0 45 -2 48 -27 3 -28 21 -37 60 -30 15 3 22 11 22 26 0 16 -20
33 -80 70 -45 27 -86 58 -92 69 -13 24 -4 122 12 142 10 12 39 15 136 14 l124
-1 0 -64z m410 -14 l0 -80 -45 0 -45 0 0 45 c0 38 -3 45 -20 45 -19 0 -20 -7
-20 -124 0 -101 3 -125 15 -130 9 -3 15 -19 15 -41 l0 -35 -80 0 -80 0 0 35
c0 22 6 38 15 41 12 5 15 29 15 130 0 117 -1 124 -20 124 -17 0 -20 -7 -20
-45 l0 -45 -45 0 -45 0 0 80 0 80 180 0 180 0 0 -80z m180 45 c0 -24 -5 -35
-15 -35 -12 0 -15 -20 -15 -119 0 -84 4 -122 12 -127 18 -11 71 -5 79 8 4 7 7
61 7 121 -1 82 -4 110 -14 114 -8 3 -14 20 -14 39 l0 34 75 0 75 0 0 -35 c0
-24 -5 -35 -15 -35 -13 0 -15 -23 -15 -145 0 -187 1 -185 -140 -185 -141 0
-140 -2 -140 185 0 122 -2 145 -15 145 -10 0 -15 11 -15 35 l0 35 75 0 75 0 0
-35z m504 19 c13 -13 16 -44 16 -184 0 -211 10 -200 -172 -200 l-128 0 0 40
c0 29 4 40 15 40 13 0 15 21 15 125 0 104 -2 125 -15 125 -10 0 -15 11 -15 35
l0 35 134 0 c109 0 138 -3 150 -16z m356 -49 l0 -65 -45 0 c-43 0 -45 1 -45
30 0 28 -2 30 -40 30 l-40 0 0 -50 0 -50 50 0 c50 0 50 0 50 -33 l0 -33 -50 2
-50 1 0 -43 0 -44 40 0 c38 0 40 2 40 30 0 29 2 30 45 30 l45 0 0 -70 0 -70
-145 0 -145 0 0 40 c0 29 4 40 15 40 13 0 15 21 15 125 0 104 -2 125 -15 125
-10 0 -15 11 -15 35 l0 35 145 0 145 0 0 -65z m220 -40 c27 -58 51 -105 54
-105 3 0 6 32 6 70 0 56 -3 70 -15 70 -10 0 -15 11 -15 35 l0 35 70 0 70 0 0
-34 c0 -21 -6 -36 -15 -40 -12 -4 -15 -32 -15 -166 l0 -160 -44 0 -43 0 -56
118 -56 117 0 -76 c-1 -60 2 -78 14 -83 9 -3 15 -19 15 -41 l0 -36 -72 3 -73
3 -3 33 c-2 22 2 34 12 38 23 9 24 254 1 254 -10 0 -15 11 -15 35 l0 35 65 0
65 0 50 -105z m570 25 l0 -80 -45 0 -45 0 0 45 c0 38 -3 45 -20 45 -19 0 -20
-7 -20 -124 0 -101 3 -125 15 -130 9 -3 15 -19 15 -41 l0 -35 -80 0 -80 0 0
35 c0 22 6 38 15 41 12 5 15 29 15 130 0 117 -1 124 -20 124 -17 0 -20 -7 -20
-45 l0 -45 -45 0 -45 0 0 80 0 80 180 0 180 0 0 -80z m-2128 -485 c2 -53 2
-100 0 -105 -2 -6 -19 -10 -38 -10 l-34 0 0 -215 0 -215 35 0 35 0 0 90 0 90
120 0 120 0 0 -195 0 -195 -302 2 -303 3 -3 103 -3 102 26 0 25 0 0 199 c0
110 3 206 6 215 5 13 -1 16 -25 16 l-31 0 0 105 0 105 184 0 185 0 3 -95z
m688 -10 l0 -105 -30 0 -30 0 0 -215 0 -215 30 0 30 0 0 -104 0 -105 -177 2
-178 2 -3 103 -3 102 31 0 30 0 0 215 0 215 -30 0 -30 0 0 105 0 105 180 0
180 0 0 -105z m710 -65 l0 -170 -115 0 -115 0 0 65 0 65 -50 0 -50 0 0 -70 0
-69 108 -3 107 -3 0 -95 0 -95 -107 0 -108 0 0 -47 0 -48 45 0 46 0 -3 -102
-3 -103 -190 0 -190 0 -3 103 -3 102 26 0 25 0 0 215 0 215 -25 0 -25 0 0 105
0 105 315 0 315 0 0 -170z m710 15 l0 -155 -115 0 -115 0 0 50 0 50 -50 0 -51
0 3 -57 3 -58 103 -3 102 -3 0 -94 0 -95 -105 0 -106 0 3 -57 3 -58 45 0 45 0
3 53 3 52 115 0 114 0 0 -160 0 -160 -310 0 -310 0 0 105 0 105 25 0 25 0 0
215 0 215 -25 0 -25 0 0 105 0 105 310 0 310 0 0 -155z"/>
<path d="M973 2396 c-41 -19 -73 -70 -73 -119 0 -95 81 -154 170 -123 22 7 43
10 46 5 14 -23 24 -4 24 46 0 42 3 55 15 55 8 0 15 5 15 10 0 6 -22 10 -50 10
-27 0 -50 -4 -50 -10 0 -5 7 -10 15 -10 21 0 20 -63 -1 -81 -9 -7 -31 -13 -50
-13 -96 0 -130 165 -43 209 44 23 68 18 106 -22 l36 -38 -7 34 c-3 18 -6 37
-6 41 0 4 -10 8 -22 9 -13 0 -39 3 -58 6 -21 3 -48 -1 -67 -9z"/>
<path d="M1409 2382 c-18 -47 -10 -55 21 -22 17 18 37 30 47 28 16 -3 18 -17
21 -103 3 -92 1 -101 -19 -117 -21 -18 -20 -18 32 -18 42 1 50 3 37 11 -15 9
-18 26 -18 119 0 105 1 110 21 110 12 0 34 -14 50 -31 31 -33 35 -29 19 17
l-10 29 -96 0 c-92 0 -97 -1 -105 -23z"/>
<path d="M1253 2393 c15 -4 17 -18 17 -113 0 -93 -3 -110 -17 -119 -14 -8 -5
-10 37 -10 42 0 51 2 38 10 -15 9 -18 26 -18 119 0 95 2 109 18 113 9 3 -8 5
-38 5 -30 0 -47 -2 -37 -5z"/>
<path d="M1745 2293 c-22 -59 -47 -115 -57 -125 -17 -17 -16 -18 25 -18 32 1
38 3 25 10 -14 8 -14 15 -5 45 11 36 11 36 61 33 48 -3 51 -5 60 -36 7 -26 6
-36 -5 -43 -9 -6 3 -9 36 -9 43 1 48 2 33 14 -10 7 -35 62 -56 122 -54 149
-65 150 -117 7z m84 -20 c1 -8 -12 -13 -34 -13 -40 0 -41 4 -18 62 l17 42 17
-40 c10 -21 18 -45 18 -51z"/>
<path d="M2003 2393 c21 -6 20 1 22 -112 2 -80 0 -96 -16 -112 -19 -19 -18
-19 29 -19 37 1 43 3 30 11 -15 8 -18 25 -18 107 l1 97 38 -103 c21 -57 42
-106 45 -109 11 -11 22 9 57 105 l34 94 3 -88 c2 -75 0 -91 -14 -101 -15 -11
-10 -13 37 -13 41 1 50 3 37 11 -15 8 -18 25 -18 114 0 88 3 106 18 115 13 8
8 10 -27 8 l-43 -3 -32 -87 c-17 -47 -34 -89 -37 -92 -3 -3 -21 37 -40 89
l-34 95 -45 -1 c-25 -1 -37 -3 -27 -6z"/>
<path d="M1550 1796 c0 -136 0 -136 63 -128 l27 4 0 124 0 124 -45 0 -45 0 0
-124z"/>
<path d="M392 1413 c3 -66 4 -68 31 -71 l27 -3 0 -244 0 -244 -27 -3 c-27 -3
-28 -5 -31 -70 l-3 -68 276 0 275 0 0 154 c0 118 -3 155 -13 159 -17 6 -138 6
-154 0 -9 -4 -13 -31 -13 -89 l0 -84 -70 0 -70 0 0 245 0 245 40 0 40 0 0 70
0 70 -155 0 -156 0 3 -67z m288 -3 l0 -50 -40 0 -40 0 0 -265 0 -265 90 0 89
0 3 88 3 87 65 0 65 0 3 -137 3 -138 -251 0 -250 0 0 50 c0 47 2 50 25 50 l25
0 0 265 0 265 -25 0 c-23 0 -25 3 -25 50 l0 50 130 0 130 0 0 -50z"/>
<path d="M1100 1410 c0 -68 1 -70 25 -70 l25 0 0 -245 0 -245 -25 0 c-24 0
-25 -2 -25 -70 l0 -70 145 0 145 0 0 70 0 70 -30 0 -30 0 0 245 0 245 30 0 30
0 0 70 0 70 -145 0 -145 0 0 -70z m270 0 c0 -49 -1 -50 -30 -50 l-30 0 0 -265
0 -265 30 0 c29 0 30 -1 30 -50 l0 -50 -125 0 -125 0 0 50 c0 47 2 50 25 50
l25 0 0 265 0 265 -25 0 c-23 0 -25 3 -25 50 l0 50 125 0 125 0 0 -50z"/>
<path d="M1532 1413 c3 -66 4 -68 31 -71 l27 -3 0 -245 0 -244 -30 0 -30 0 0
-70 0 -70 160 0 160 0 0 70 0 70 -45 0 -45 0 0 80 0 80 110 0 110 0 0 60 0 60
-110 0 -110 0 0 105 0 105 85 0 84 0 3 -62 3 -63 83 -2 82 -2 0 135 0 134
-285 0 -286 0 3 -67z m548 -63 l0 -110 -65 0 -65 0 0 60 0 60 -105 0 -105 0 0
-125 0 -125 110 0 110 0 0 -40 0 -40 -110 0 -110 0 0 -100 0 -100 45 0 45 0 0
-50 0 -50 -140 0 -140 0 0 50 c0 49 1 50 30 50 l30 0 0 264 0 265 -27 3 c-26
3 -28 7 -31 51 l-3 47 265 0 266 0 0 -110z"/>
<path d="M2252 1413 c3 -66 4 -68 31 -71 l27 -3 0 -245 0 -244 -30 0 -30 0 0
-70 0 -70 280 0 280 0 0 120 0 120 -85 0 -85 0 0 -50 0 -50 -80 0 -80 0 0 90
0 90 105 0 105 0 0 65 0 65 -105 0 -105 0 0 90 0 90 80 0 80 0 0 -50 0 -50 85
0 85 0 0 120 0 120 -280 0 -281 0 3 -67z m538 -53 l0 -100 -65 0 -65 0 0 50 0
50 -100 0 -100 0 0 -110 0 -110 105 0 105 0 0 -40 0 -39 -102 -3 -103 -3 -3
-112 -3 -113 101 0 100 0 0 50 0 50 65 0 65 0 0 -100 0 -100 -260 0 -260 0 0
50 c0 49 1 50 30 50 l30 0 0 264 0 265 -27 3 c-26 3 -28 7 -31 51 l-3 47 260
0 261 0 0 -100z"/>
</g>
</svg>
